<svg xmlns="http://www.w3.org/2000/svg" width="512" height="512" viewBox="0 0 512 512">
  <defs>
    <linearGradient id="bg" x1="0" y1="0" x2="1" y2="1">
      <stop offset="0%" stop-color="#22c55e"/>
      <stop offset="100%" stop-color="#16a34a"/>
    </linearGradient>
  </defs>
  <rect width="512" height="512" rx="96" fill="url(#bg)"/>
  <g transform="translate(256,270)">
    <path d="M0-90 C40-50 60-10 60 20 C60 55 35 80 0 80 C-35 80 -60 55 -60 20 C-60 -10 -40 -50 0-90Z" fill="white" opacity="0.95"/>
    <path d="M0-70 C-20-40 -35-10 -35 15 C-35 45 -20 60 0 60 C20 60 35 45 35 15 C35 -10 20 -40 0-70Z" fill="#fbbf24" opacity="0.9"/>
    <path d="M0-50 C-12-25 -20 0 -20 15 C-20 35 -12 45 0 45 C12 45 20 35 20 15 C20 0 12 -25 0-50Z" fill="white" opacity="0.95"/>
  </g>
  <text x="256" y="390" text-anchor="middle" font-family="Arial, sans-serif" font-size="44" font-weight="700" fill="white" letter-spacing="4">kcal</text>
</svg>
